<svg width="163" height="40" viewBox="0 0 163 40" fill="none" xmlns="http://www.w3.org/2000/svg">
<g clip-path="url(#clip0_338_48)">
<path d="M44 13.7988C43.2563 14.125 42.4637 14.3412 41.6375 14.4462C42.4875 13.9388 43.1363 13.1412 43.4412 12.18C42.6488 12.6525 41.7738 12.9863 40.8412 13.1725C40.0887 12.3713 39.0162 11.875 37.8462 11.875C35.5763 11.875 33.7487 13.7175 33.7487 15.9763C33.7487 16.3012 33.7762 16.6137 33.8438 16.9112C30.435 16.745 27.4188 15.1113 25.3925 12.6225C25.0387 13.2363 24.8313 13.9388 24.8313 14.695C24.8313 16.115 25.5625 17.3737 26.6525 18.1025C25.9937 18.09 25.3475 17.8988 24.8 17.5975C24.8 17.61 24.8 17.6262 24.8 17.6425C24.8 19.635 26.2212 21.29 28.085 21.6712C27.7512 21.7625 27.3875 21.8062 27.01 21.8062C26.7475 21.8062 26.4825 21.7913 26.2337 21.7362C26.765 23.36 28.2725 24.5538 30.065 24.5925C28.67 25.6838 26.8988 26.3412 24.9813 26.3412C24.645 26.3412 24.3225 26.3263 24 26.285C25.8162 27.4563 27.9688 28.125 30.29 28.125C37.835 28.125 41.96 21.875 41.96 16.4575C41.96 16.2762 41.9538 16.1013 41.945 15.9275C42.7588 15.35 43.4425 14.6288 44 13.7988Z" fill="white"/>
</g>
<path d="M61.408 25.16C58.5067 25.16 57.056 24.2213 57.056 22.344V17.432C57.056 15.448 58.5067 14.456 61.408 14.456C64.3413 14.456 65.808 15.4427 65.808 17.416V22.344C65.808 23.3467 65.4027 24.0667 64.592 24.504C63.7813 24.9413 62.72 25.16 61.408 25.16ZM61.44 24.12C63.3493 24.12 64.304 23.5227 64.304 22.328V17.384C64.304 16.104 63.344 15.464 61.424 15.464C60.496 15.464 59.7813 15.608 59.28 15.896C58.7893 16.184 58.544 16.68 58.544 17.384V22.328C58.544 23.5227 59.5093 24.12 61.44 24.12ZM70.7954 25.16C69.8034 25.16 69.1047 24.984 68.6994 24.632C68.3047 24.2693 68.1074 23.704 68.1074 22.936V17.256H69.5474V22.856C69.5474 23.0587 69.5634 23.224 69.5954 23.352C69.638 23.4693 69.7074 23.592 69.8034 23.72C69.9954 23.9973 70.4647 24.136 71.2114 24.136C72.0007 24.136 72.5554 24.0613 72.8754 23.912C73.1847 23.7627 73.3394 23.4907 73.3394 23.096V17.256H74.7794V25H73.3394V24.056C73.2007 24.792 72.3527 25.16 70.7954 25.16ZM77.2793 17.256H78.6393V18.52C78.6393 18.2747 78.7459 18.0453 78.9593 17.832C79.1726 17.608 79.4446 17.432 79.7753 17.304C80.1059 17.1653 80.4313 17.096 80.7513 17.096H81.4553V18.328H80.6553C79.9726 18.328 79.4766 18.4187 79.1673 18.6C78.8686 18.7707 78.7193 19.0853 78.7193 19.544V25H77.2793V17.256ZM89.2321 15.704H85.7121V14.616H94.3041V15.704H90.8001V25H89.2321V15.704ZM94.8795 17.256H96.4635L98.3515 23.624H98.4475L100.272 17.256H101.888L103.776 23.624H103.872L105.696 17.256H107.168L104.624 25H102.911L101.04 18.744L99.1995 25H97.4875L94.8795 17.256ZM108.607 14.456H110.047V15.96H108.607V14.456ZM108.607 17.256H110.047V25H108.607V17.256ZM115.793 25.16C115.132 25.16 114.614 25.0907 114.241 24.952C113.868 24.8027 113.596 24.5573 113.425 24.216C113.265 23.864 113.185 23.3733 113.185 22.744V18.2H111.457V17.256H113.185V14.856H114.641V17.256H117.409V18.2H114.641V22.824C114.641 23.208 114.684 23.496 114.769 23.688C114.865 23.88 115.025 24.0187 115.249 24.104C115.484 24.1787 115.82 24.216 116.257 24.216C116.396 24.216 116.78 24.1733 117.409 24.088V25.032C116.865 25.1173 116.326 25.16 115.793 25.16ZM122.23 25.16C121.569 25.16 121.052 25.0907 120.678 24.952C120.305 24.8027 120.033 24.5573 119.862 24.216C119.702 23.864 119.622 23.3733 119.622 22.744V18.2H117.894V17.256H119.622V14.856H121.078V17.256H123.846V18.2H121.078V22.824C121.078 23.208 121.121 23.496 121.206 23.688C121.302 23.88 121.462 24.0187 121.686 24.104C121.921 24.1787 122.257 24.216 122.694 24.216C122.833 24.216 123.217 24.1733 123.846 24.088V25.032C123.302 25.1173 122.764 25.16 122.23 25.16ZM128.684 25.16C126.316 25.16 125.132 24.3707 125.132 22.792V19.736C125.132 18.7973 125.399 18.1253 125.932 17.72C126.476 17.304 127.351 17.096 128.556 17.096C129.697 17.096 130.519 17.2933 131.02 17.688C131.532 18.0827 131.788 18.7653 131.788 19.736V21.448H126.588V22.616C126.588 23.1493 126.775 23.5333 127.148 23.768C127.521 24.0027 128.097 24.12 128.876 24.12C129.612 24.12 130.481 23.992 131.484 23.736V24.84C130.503 25.0533 129.569 25.16 128.684 25.16ZM130.348 20.504V19.288C130.348 18.8187 130.204 18.4987 129.916 18.328C129.639 18.1467 129.159 18.056 128.476 18.056C127.815 18.056 127.335 18.1467 127.036 18.328C126.737 18.4987 126.588 18.8187 126.588 19.288V20.504H130.348ZM133.982 17.256H135.342V18.52C135.342 18.2747 135.449 18.0453 135.662 17.832C135.876 17.608 136.148 17.432 136.478 17.304C136.809 17.1653 137.134 17.096 137.454 17.096H138.158V18.328H137.358C136.676 18.328 136.18 18.4187 135.87 18.6C135.572 18.7707 135.422 19.0853 135.422 19.544V25H133.982V17.256Z" fill="white"/>
<rect x="0.5" y="0.5" width="162" height="39" rx="19.5" stroke="white"/>
<defs>
<clipPath id="clip0_338_48">
<rect width="20" height="20" fill="white" transform="translate(24 10)"/>
</clipPath>
</defs>
</svg>
