<svg width="20" height="16" viewBox="0 0 20 16" fill="none" xmlns="http://www.w3.org/2000/svg">
<path d="M6.50418 15.5082C13.58 15.5082 17.4495 9.64617 17.4495 4.56295C17.4495 4.39646 17.4461 4.23065 17.4386 4.06576C18.1897 3.52271 18.8425 2.84504 19.3575 2.0737C18.6683 2.38019 17.9264 2.58624 17.1484 2.67947C17.9426 2.20304 18.5523 1.44969 18.8399 0.551636C18.0967 0.992291 17.2735 1.31244 16.3972 1.48535C15.6953 0.737624 14.6957 0.27002 13.5891 0.27002C11.4648 0.27002 9.74194 1.99274 9.74194 4.11633C9.74194 4.41836 9.77581 4.7119 9.84174 4.99352C6.64453 4.83264 3.80933 3.30198 1.91219 0.974291C1.58196 1.54268 1.39139 2.20315 1.39139 2.90788C1.39139 4.24235 2.07055 5.42076 3.10322 6.10989C2.4721 6.09051 1.87929 5.91726 1.361 5.62887C1.36043 5.64504 1.36043 5.66075 1.36043 5.67795C1.36043 7.54104 2.68641 9.09657 4.44686 9.44904C4.12351 9.53697 3.78329 9.58437 3.43242 9.58437C3.18497 9.58437 2.94372 9.56004 2.70935 9.51497C3.19908 11.0434 4.61932 12.1557 6.30305 12.1869C4.98636 13.2188 3.32773 13.8336 1.52509 13.8336C1.21503 13.8336 0.908534 13.8158 0.607422 13.7802C2.30997 14.8715 4.33162 15.5084 6.50429 15.5084" fill="#FF2020"/>
</svg>
