<svg width="170" height="60" viewBox="0 0 170 60" fill="none" xmlns="http://www.w3.org/2000/svg">
<g clip-path="url(#clip0_338_24)">
<path d="M65.7002 5.7H68.5502L76.9502 18.6V5.7H79.0502V21.3H76.2002L67.8002 8.25V21.3H65.7002V5.7Z" fill="white"/>
<path d="M85.5 21.45C85.05 21.45 84.45 21.15 84 21C83.4 20.7 83.1 20.4 82.8 19.8C82.5 19.2 82.5 18.6 82.5 17.7V13.65C82.5 12.9 82.65 12.3 82.8 11.7C82.95 11.1 83.25 10.8 83.55 10.5C83.85 10.2 84.15 10.05 84.6 9.9C85.05 9.75 85.65 9.6 86.1 9.6C86.7 9.6 87.3 9.6 87.9 9.6C88.8 9.6 89.4 9.6 89.85 9.6C90.3 9.6 90.75 9.75 91.2 9.9C91.5 9.9 91.95 10.2 92.25 10.5C92.55 10.8 92.7 11.25 93 11.7C93.15 12.3 93.3 12.9 93.3 13.65V17.7C93.3 19.05 93 20.1 92.4 20.7C92.1 21 91.8 21.15 91.35 21.3C90.9 21.45 90.3 21.6 89.85 21.6C89.25 21.6 88.65 21.6 88.05 21.6C86.85 21.6 86.1 21.6 85.5 21.45ZM89.25 20.1C89.55 20.1 89.85 19.95 90.15 19.8C90.45 19.65 90.6 19.5 90.75 19.2C90.9 18.9 90.9 18.45 90.9 18V13.35C90.9 12.6 90.75 12.15 90.6 11.85C90.45 11.55 90.15 11.25 89.7 11.25C89.25 11.1 88.65 11.1 87.75 11.1C86.85 11.1 86.25 11.1 85.8 11.25C85.35 11.4 85.05 11.55 84.9 11.85C84.75 12.15 84.6 12.75 84.6 13.35V18C84.6 18.6 84.6 18.9 84.75 19.2C84.9 19.5 85.05 19.65 85.35 19.8C85.65 19.95 85.95 20.1 86.25 20.1C86.55 20.1 87 20.1 87.75 20.1C88.5 20.1 88.95 20.1 89.25 20.1Z" fill="white"/>
<path d="M99.1502 21.3C98.5502 21.15 98.2502 20.7 97.9502 20.25C97.6502 19.8 97.5002 18.9 97.5002 18V11.1H94.9502V9.75H97.5002V6.15H99.7502V9.75H103.95V11.1H99.7502V18C99.7502 18.6 99.7502 19.05 99.9002 19.35C100.05 19.65 100.35 19.8 100.65 19.95C100.95 20.1 101.55 20.1 102.15 20.1C102.3 20.1 102.9 20.1 103.95 19.95V21.3C103.2 21.45 102.3 21.45 101.55 21.45C100.35 21.6 99.6002 21.45 99.1502 21.3Z" fill="white"/>
<path d="M108.75 21.45C108.3 21.45 107.7 21.15 107.25 21C106.65 20.7 106.35 20.4 106.05 19.8C105.75 19.2 105.75 18.6 105.75 17.7V13.65C105.75 12.9 105.9 12.3 106.05 11.7C106.2 11.1 106.5 10.8 106.8 10.5C107.1 10.2 107.4 10.05 107.85 9.9C108.3 9.75 108.9 9.6 109.35 9.6C109.95 9.6 110.55 9.6 111.15 9.6C112.05 9.6 112.65 9.6 113.1 9.6C113.55 9.6 114 9.75 114.45 9.9C114.9 9.9 115.2 10.2 115.5 10.5C115.8 10.8 115.95 11.25 116.25 11.7C116.4 12.3 116.55 12.9 116.55 13.65V17.7C116.55 19.05 116.25 20.1 115.65 20.7C115.35 21 115.05 21.15 114.6 21.3C114.15 21.45 113.55 21.6 113.1 21.6C112.5 21.6 111.9 21.6 111.3 21.6C110.1 21.6 109.35 21.6 108.75 21.45ZM112.5 20.1C112.8 20.1 113.1 19.95 113.4 19.8C113.7 19.65 113.85 19.5 114 19.2C114.15 18.9 114.15 18.45 114.15 18V13.35C114.15 12.6 114 12.15 113.85 11.85C113.7 11.55 113.4 11.25 112.95 11.25C112.5 11.1 111.9 11.1 111 11.1C110.1 11.1 109.5 11.1 109.05 11.25C108.6 11.4 108.3 11.55 108.15 11.85C108 12 108 12.6 108 13.35V18C108 18.6 108 18.9 108.15 19.2C108.3 19.5 108.45 19.65 108.75 19.8C109.05 19.95 109.35 20.1 109.65 20.1C109.95 20.1 110.4 20.1 111.15 20.1C111.75 20.1 112.2 20.1 112.5 20.1Z" fill="white"/>
<path d="M119.85 9.75H121.95V11.7C121.95 11.4 122.1 10.95 122.4 10.65C122.7 10.35 123.15 10.05 123.6 9.9C124.05 9.75 124.65 9.6 125.1 9.6H126.15V11.4H124.95C123.9 11.4 123.15 11.55 122.7 11.85C122.25 12.15 121.95 12.6 121.95 13.35V21.6H119.85V9.75Z" fill="white"/>
<path d="M128.25 5.55H130.35V7.8H128.25V5.55ZM128.25 9.75H130.35V21.3H128.25V9.75Z" fill="white"/>
<path d="M136.8 21.45C136.35 21.45 135.75 21.15 135.3 21C134.7 20.7 134.4 20.4 134.1 19.8C133.8 19.2 133.8 18.6 133.8 17.7V13.65C133.8 12.9 133.95 12.3 134.1 11.7C134.25 11.1 134.55 10.8 134.85 10.5C135.15 10.2 135.45 10.05 135.9 9.9C136.35 9.75 136.95 9.6 137.4 9.6C138 9.6 138.6 9.6 139.2 9.6C140.1 9.6 140.7 9.6 141.15 9.6C141.6 9.6 142.05 9.75 142.5 9.9C142.95 10.05 143.4 10.2 143.7 10.5C144 10.8 144.15 11.25 144.45 11.7C144.6 12.3 144.75 12.9 144.75 13.65V17.7C144.75 19.05 144.45 20.1 143.85 20.7C143.55 21 143.25 21.15 142.8 21.3C142.35 21.45 141.75 21.6 141.3 21.6C140.7 21.6 140.1 21.6 139.5 21.6C138 21.6 137.25 21.6 136.8 21.45ZM140.55 20.1C140.85 20.1 141.15 19.95 141.45 19.8C141.75 19.65 141.9 19.5 142.05 19.2C142.2 18.9 142.2 18.45 142.2 18V13.35C142.2 12.6 142.05 12.15 141.9 11.85C141.75 11.55 141.45 11.25 141 11.25C140.55 11.1 139.95 11.1 139.05 11.1C138.15 11.1 137.55 11.1 137.1 11.25C136.65 11.4 136.35 11.55 136.2 11.85C136.05 12.15 135.9 12.75 135.9 13.35V18C135.9 18.6 135.9 18.9 136.05 19.2C136.2 19.5 136.35 19.65 136.65 19.8C136.95 19.95 137.25 20.1 137.55 20.1C137.85 20.1 138.3 20.1 139.05 20.1C139.8 20.1 140.25 20.1 140.55 20.1Z" fill="white"/>
<path d="M148.2 20.85C147.6 20.25 147.3 19.5 147.3 18.3V9.75H149.4V18.15C149.4 18.45 149.4 18.75 149.55 18.9C149.55 19.05 149.7 19.2 149.85 19.5C150.15 19.95 150.9 20.1 151.95 20.1C153.15 20.1 153.9 19.95 154.5 19.8C154.95 19.65 155.25 19.2 155.25 18.6V9.75H157.35V21.3H155.25V19.95C155.1 21 153.75 21.6 151.5 21.6C149.85 21.6 148.8 21.3 148.2 20.85Z" fill="white"/>
<path d="M160.5 21.3V19.65C162.3 19.95 163.65 20.1 164.55 20.1C165.6 20.1 166.35 19.95 166.8 19.8C167.25 19.65 167.4 19.2 167.4 18.75V17.55C167.4 17.1 167.25 16.65 166.95 16.5C166.65 16.35 166.05 16.2 165.3 16.2H163.95C162.75 16.2 161.85 15.9 161.25 15.45C160.65 15 160.35 14.25 160.35 13.35V12.15C160.35 10.35 162.15 9.45 165.6 9.45C165.9 9.45 167.1 9.45 169.2 9.6V11.1C167.7 10.95 166.5 10.8 165.6 10.8C164.4 10.8 163.65 10.95 163.2 11.1C162.75 11.25 162.6 11.7 162.6 12.3V13.35C162.6 14.1 163.35 14.55 164.7 14.55H166.05C168.45 14.55 169.65 15.45 169.65 17.25V18.3C169.65 19.5 169.2 20.4 168.45 20.85C167.55 21.3 166.35 21.6 164.7 21.6C163.2 21.6 161.85 21.45 160.5 21.3Z" fill="white"/>
<path d="M65.7 36.6H63V35.25H65.7V33.45C65.7 32.1 66 31.2 66.6 30.75C67.2 30.3 68.1 30 69.6 30C70.5 30 71.25 30 72 30.15V31.5C71.4 31.35 70.8 31.35 70.35 31.35C69.6 31.35 69.15 31.35 68.85 31.5C68.55 31.65 68.25 31.8 68.1 32.1C67.95 32.4 67.95 32.85 67.95 33.3V35.25H72V36.6H67.95V46.8H65.85V36.6H65.7ZM73.5 30H75.6V32.4H73.5V30ZM73.5 35.25H75.6V46.8H73.5V35.25Z" fill="white"/>
<path d="M79.5 35.25H81.6V36.6C81.75 35.55 83.1 34.95 85.35 34.95C86.85 34.95 87.9 35.25 88.5 35.7C89.1 36.3 89.4 37.05 89.4 38.25V46.8H87.3V38.4C87.3 38.1 87.3 37.8 87.3 37.65C87.3 37.5 87.15 37.2 87 37.05C86.7 36.6 85.95 36.45 84.9 36.45C84 36.45 83.4 36.45 82.95 36.6C82.5 36.75 82.2 36.9 82.05 37.2C81.9 37.5 81.75 37.8 81.75 38.4V46.8H79.5V35.25Z" fill="white"/>
<path d="M94.2004 46.8C93.6004 46.65 93.1504 46.2 92.8504 45.75C92.5504 45.15 92.4004 44.4 92.4004 43.5C92.4004 42.6 92.5504 42 92.7004 41.4C92.8504 40.8 93.3004 40.5 93.9004 40.35C94.5004 40.2 95.4004 40.05 96.4504 40.05H99.9004V38.25C99.9004 37.8 99.7504 37.5 99.6004 37.2C99.4504 36.9 99.1504 36.75 98.7004 36.75C98.2504 36.6 97.8004 36.6 97.0504 36.6C95.8504 36.6 94.5004 36.75 93.0004 36.9V35.25C94.6504 35.1 96.0004 35.1 97.3504 35.1C98.7004 35.1 99.7504 35.25 100.35 35.4C100.95 35.55 101.4 36 101.7 36.45C102 36.9 102 37.65 102 38.7V46.95H99.9004V45.9C99.7504 46.8 98.5504 47.25 96.4504 47.25C95.7004 47.1 94.8004 46.95 94.2004 46.8ZM97.2004 45.6C97.9504 45.6 98.7004 45.6 99.1504 45.45C99.9004 45.3 100.2 45 100.2 44.4V41.25H96.9004C96.1504 41.25 95.7004 41.25 95.4004 41.4C95.1004 41.55 94.9504 41.7 94.8004 42C94.6504 42.3 94.6504 42.75 94.6504 43.35C94.6504 43.95 94.6504 44.4 94.8004 44.7C94.9504 45 95.1004 45.3 95.4004 45.3C95.7004 45.45 96.1504 45.45 96.7504 45.45H97.2004V45.6Z" fill="white"/>
<path d="M106.05 35.25H108.15V36.6C108.3 35.55 109.65 34.95 111.9 34.95C113.4 34.95 114.45 35.25 115.05 35.7C115.65 36.3 115.95 37.05 115.95 38.25V46.8H114V38.4C114 38.1 114 37.8 114 37.65C114 37.5 113.85 37.2 113.7 37.05C113.4 36.6 112.65 36.45 111.6 36.45C110.7 36.45 110.1 36.45 109.65 36.6C109.2 36.75 108.9 36.9 108.75 37.2C108.6 37.5 108.45 37.8 108.45 38.4V46.8H106.35V35.25H106.05Z" fill="white"/>
<path d="M122.85 47.1C122.55 47.1 122.1 46.95 121.65 46.8C121.2 46.65 120.75 46.5 120.45 46.2C120.15 45.9 120 45.6 119.7 45C119.55 44.55 119.4 43.95 119.4 43.2V39C119.4 37.65 119.7 36.75 120.15 36.15C120.45 35.85 120.75 35.55 121.05 35.4C121.35 35.25 121.65 35.1 122.1 35.1C122.55 35.1 123 34.95 123.3 34.95C123.6 34.95 124.2 34.95 124.8 34.95C125.85 34.95 127.05 35.1 128.1 35.25V36.9C126.75 36.6 125.7 36.45 124.5 36.45C123.6 36.45 123 36.45 122.7 36.6C122.4 36.75 122.1 36.9 121.95 37.2C121.8 37.5 121.65 37.95 121.65 38.7V43.5C121.65 44.1 121.8 44.55 121.95 44.85C122.1 45.15 122.4 45.3 122.85 45.45C123.3 45.6 123.9 45.6 124.8 45.6C126 45.6 127.2 45.45 128.25 45.15V46.8C127.2 46.95 125.85 47.1 124.5 47.1C123.75 47.1 123.15 47.1 122.85 47.1Z" fill="white"/>
<path d="M130.5 43.5V39C130.5 37.65 130.95 36.6 131.7 36C132.45 35.4 133.8 35.1 135.6 35.1C137.25 35.1 138.6 35.4 139.35 36C140.1 36.6 140.55 37.65 140.55 39V41.55H132.75V43.35C132.75 44.1 133.05 44.7 133.65 45.15C134.25 45.45 135 45.75 136.2 45.75C137.25 45.75 138.6 45.6 140.1 45.15V46.8C138.6 47.1 137.25 47.25 135.9 47.25C132.3 47.1 130.5 45.9 130.5 43.5ZM138.45 40.05V38.25C138.45 37.5 138.3 37.05 137.85 36.75C137.4 36.45 136.65 36.3 135.75 36.3C134.7 36.3 134.1 36.45 133.65 36.75C133.2 37.05 133.05 37.5 133.05 38.25V40.05H138.45Z" fill="white"/>
<path d="M15.9 36.9C16.05 37.05 16.2 37.05 16.35 37.2H16.5L16.95 37.5L17.55 36.45L17.1 36.15L16.95 36C16.8 35.85 16.65 35.85 16.65 35.85C16.2 35.55 15.9 35.25 15.75 34.95C15.6 34.5 15.45 34.05 15.45 33.15H14.25C14.25 35.25 14.7 36.15 15.9 36.9Z" fill="#FF2020"/>
<path d="M36.8988 34.8C37.4988 34.5 37.6488 34.05 37.6488 33.6V12.15C37.6488 11.7 37.3488 11.4 36.8988 11.1L28.6488 6.75C27.8988 6.3 26.6988 6.3 25.7988 6.75L17.5488 11.1C17.0988 11.4 16.7988 11.7 16.7988 12.15V33.6C16.7988 33.6 16.7988 33.6 16.7988 33.75C16.7988 34.2 17.0988 34.65 17.5488 34.95L25.7988 39.3C26.5488 39.75 27.7488 39.75 28.6488 39.3L36.8988 34.8ZM36.4488 21.3L29.0988 17.4L36.4488 13.5V21.3ZM36.2988 22.8L28.0488 27H27.8988V18.15H28.0488L36.2988 22.8ZM18.2988 12.15L26.5488 7.8C26.9988 7.65 27.7488 7.65 28.1988 7.8L36.4488 12.15L28.0488 16.5C27.5988 16.65 26.8488 16.65 26.3988 16.5L18.2988 12.15ZM26.5488 18.3V27.15H26.3988L18.1488 22.8L26.3988 18.45C26.5488 18.45 26.5488 18.45 26.5488 18.3ZM18.1488 13.65L25.4988 17.55L18.1488 21.45V13.65ZM27.2988 38.25C26.6988 38.25 26.2488 37.95 25.9488 37.8L18.2988 33.75V24.3L25.9488 28.35C26.6988 28.8 27.8988 28.8 28.7988 28.35L36.4488 24.3V33.75L28.6488 37.8C28.1988 37.95 27.7488 38.25 27.2988 38.25Z" fill="#FF2020"/>
<path d="M38.5494 9C38.3994 8.85 38.2494 8.85 38.0994 8.7H37.9494L37.4994 8.4L36.8994 9.45L37.3494 9.75L37.4994 9.9C37.6494 10.05 37.7994 10.05 37.7994 10.05C38.2494 10.35 38.5494 10.65 38.6994 10.95C38.8494 11.25 38.9994 11.85 38.9994 12.6H40.3494C40.3494 10.65 39.8994 9.75 38.5494 9Z" fill="#FF2020"/>
<path d="M45.2996 35.4C45.7496 25.95 46.6496 16.5 48.1496 7.2C48.1496 7.05 48.1496 6.9 48.1496 6.75C47.9996 1.2 30.4496 0 27.2996 0C20.6996 0 6.29961 1.8 6.29961 6.9C6.29961 7.05 6.29961 7.35 6.29961 7.5C7.79961 16.5 8.69961 25.95 9.14961 35.4C3.14961 37.5 -0.150391 40.65 -0.150391 44.25C-0.150391 45.9 0.449609 47.4 1.64961 48.75L2.69961 47.7C1.94961 46.65 1.49961 45.6 1.49961 44.25C1.49961 41.25 4.64961 38.55 10.1996 36.6L10.6496 36.45V35.85C10.3496 26.25 9.44961 16.65 7.79961 7.35C7.79961 7.35 7.79961 7.05 7.79961 6.9C7.79961 4.05 18.4496 1.5 27.2996 1.5C33.1496 1.5 46.6496 3.45 46.7996 6.9V7.05C45.2996 16.5 44.2496 26.25 43.9496 36V36.6L44.3996 36.75C50.0996 38.7 53.0996 41.4 53.0996 44.4C53.0996 50.7 40.0496 54.6 27.2996 54.6V56.1C40.7996 56.1 54.5996 52.05 54.5996 44.4C54.5996 40.8 51.2996 37.65 45.2996 35.4Z" fill="#FF2020"/>
<path d="M17.2496 41.25C13.3496 41.25 10.1996 43.8 9.14961 47.4C8.69961 46.95 7.94961 46.8 7.34961 46.8C5.69961 46.8 4.34961 48.15 4.34961 49.8C4.34961 51.15 5.24961 52.35 6.59961 52.65V60.15H8.09961V52.65C8.54961 52.5 8.84961 52.35 9.14961 52.05C10.1996 55.65 13.3496 58.2 17.2496 58.2C21.8996 58.2 25.6496 54.45 25.6496 49.8C25.6496 45.15 21.8996 41.25 17.2496 41.25ZM7.34961 51.15C6.59961 51.15 5.84961 50.55 5.84961 49.65C5.84961 48.75 6.44961 48.15 7.34961 48.15C8.24961 48.15 8.84961 48.75 8.84961 49.65C8.84961 50.55 8.09961 51.15 7.34961 51.15ZM17.2496 56.55C13.3496 56.55 10.3496 53.4 10.3496 49.65C10.3496 45.9 13.4996 42.75 17.2496 42.75C21.1496 42.75 24.1496 45.9 24.1496 49.65C24.1496 53.4 21.1496 56.55 17.2496 56.55Z" fill="#FF2020"/>
<path d="M17.25 44.55V46.05C19.2 46.05 20.85 47.7 20.85 49.65H22.35C22.35 46.8 20.1 44.55 17.25 44.55Z" fill="#FF2020"/>
<path d="M31.05 48.9C31.2 49.05 34.05 50.85 37.65 50.85C39.3 50.85 41.1 50.4 42.75 49.2C45.9 46.95 45.3 42.3 45.3 42.15L45.15 41.1L30 48.15L31.05 48.9ZM43.95 43.35C43.95 44.7 43.65 46.8 42 48C38.85 50.25 35.1 49.05 33.3 48.3L43.95 43.35Z" fill="#FF2020"/>
</g>
<defs>
<clipPath id="clip0_338_24">
<rect width="169.5" height="60" fill="white"/>
</clipPath>
</defs>
</svg>
